<svg xmlns="http://www.w3.org/2000/svg" width="373.066" height="70.833" viewBox="0 0 98.707 18.741">
  <g style="stroke-width:1.49412">
    <path d="M26.157 0C11.721 0 0 11.72 0 26.157v53.52c0 14.436 11.721 26.156 26.157 26.156h53.52c14.437 0 26.156-11.72 26.156-26.157v-53.52C105.833 11.72 94.113 0 79.677 0Z" clip-rule="evenodd" fill="#e40046" fill-rule="evenodd" style="stroke-width:2.23239" transform="scale(.17708)"/>
    <path style="line-height:normal;font-variant-ligatures:normal;font-variant-position:normal;font-variant-caps:normal;font-variant-numeric:normal;font-variant-alternates:normal;font-feature-settings:normal;text-indent:0;text-align:start;text-decoration:none;text-decoration-line:none;text-decoration-style:solid;text-decoration-color:#000;text-transform:none;text-orientation:mixed;white-space:normal;shape-padding:0;isolation:auto;mix-blend-mode:normal;solid-color:#000;solid-opacity:1;stroke-width:2.23239" d="M55.626 19.402a2.23 2.23 0 0 0-2.015 1.373L40.283 52.83a2.23 2.23 0 1 0 4.118 1.712l11.252-27.067 23.6 57.544a2.23 2.23 0 1 0 4.126-1.693l-25.648-62.54a2.23 2.23 0 0 0-2.105-1.384z" color="#000" font-weight="400" font-family="sans-serif" clip-rule="evenodd" overflow="visible" fill="#fff" fill-rule="evenodd" transform="scale(.17708)"/>
    <path d="M36.734 64.87a2.23 2.23 0 0 0-2.024 1.404l-7.084 17.042a2.23 2.23 0 1 0 4.118 1.712l7.084-17.042a2.23 2.23 0 0 0-2.094-3.115z" style="line-height:normal;font-variant-ligatures:normal;font-variant-position:normal;font-variant-caps:normal;font-variant-numeric:normal;font-variant-alternates:normal;font-feature-settings:normal;text-indent:0;text-align:start;text-decoration:none;text-decoration-line:none;text-decoration-style:solid;text-decoration-color:#000;text-transform:none;text-orientation:mixed;white-space:normal;shape-padding:0;isolation:auto;mix-blend-mode:normal;solid-color:#000;solid-opacity:1;stroke-width:2.23239" color="#000" font-weight="400" font-family="sans-serif" overflow="visible" fill="#fff" transform="scale(.17708)"/>
    <path style="line-height:normal;font-variant-ligatures:normal;font-variant-position:normal;font-variant-caps:normal;font-variant-numeric:normal;font-variant-alternates:normal;font-feature-settings:normal;text-indent:0;text-align:start;text-decoration:none;text-decoration-line:none;text-decoration-style:solid;text-decoration-color:#000;text-transform:none;text-orientation:mixed;white-space:normal;shape-padding:0;isolation:auto;mix-blend-mode:normal;solid-color:#000;solid-opacity:1;stroke-width:2.23239" d="M21.465 63.467a2.23 2.23 0 1 0 0 4.46H47.22a2.23 2.23 0 1 0 0-4.46zM26.18 52.88a2.23 2.23 0 1 0 0 4.459h25.751a2.23 2.23 0 1 0 0-4.46z" color="#000" font-weight="400" font-family="sans-serif" clip-rule="evenodd" overflow="visible" fill="#fff" fill-rule="evenodd" transform="scale(.17708)"/>
  </g>
  <g aria-label="Asciidoctor-tabs" style="font-size:10.5833px;line-height:1.25;font-family:Arial;-inkscape-font-specification:&quot;Arial, Normal&quot;;stroke-width:.264583">
    <path d="m55.169 35.57 2.91-7.575h1.08l3.1 7.575h-1.142l-.884-2.294h-3.167l-.832 2.294zm2.186-3.11h2.568l-.79-2.099q-.362-.956-.538-1.57-.145.728-.408 1.446zM62.57 33.932l.919-.144q.077.552.429.847.356.295.992.295.64 0 .95-.259.31-.263.31-.615 0-.315-.273-.496-.191-.124-.95-.315-1.024-.258-1.422-.444-.393-.192-.6-.522-.2-.336-.2-.74 0-.366.164-.676.171-.316.46-.522.217-.16.59-.269.377-.114.806-.114.646 0 1.131.186.491.186.724.507.232.315.32.847l-.91.124q-.061-.423-.361-.661-.295-.238-.837-.238-.641 0-.915.212t-.274.496q0 .18.114.326.114.15.357.248.139.051.821.237.987.264 1.375.434.392.166.615.486.222.32.222.796 0 .465-.274.879-.269.408-.78.635-.512.222-1.158.222-1.07 0-1.633-.444-.558-.444-.713-1.318zM71.814 33.56l.915.119q-.15.946-.77 1.483-.615.532-1.514.532-1.127 0-1.814-.733-.682-.74-.682-2.114 0-.889.294-1.555.295-.667.894-.998.605-.336 1.313-.336.894 0 1.462.455.569.45.729 1.282l-.905.14q-.129-.554-.46-.833-.325-.279-.79-.279-.703 0-1.142.507-.44.5-.44 1.591 0 1.106.424 1.607.424.502 1.106.502.548 0 .915-.336t.465-1.034zM73.53 29.064v-1.07h.93v1.07zm0 6.506v-5.488h.93v5.488zM75.88 29.064v-1.07h.931v1.07zm0 6.506v-5.488h.931v5.488zM81.787 35.57v-.692q-.521.816-1.534.816-.657 0-1.21-.361-.547-.362-.852-1.008-.3-.651-.3-1.493 0-.822.274-1.489.274-.672.822-1.028.547-.357 1.224-.357.496 0 .884.212.388.207.63.543v-2.718h.925v7.575zm-2.94-2.738q0 1.054.445 1.576.444.522 1.049.522.61 0 1.033-.497.429-.5.429-1.524 0-1.127-.434-1.654-.434-.527-1.07-.527-.62 0-1.039.507-.413.506-.413 1.597zM83.767 32.826q0-1.524.847-2.258.708-.61 1.726-.61 1.132 0 1.85.744.718.74.718 2.047 0 1.06-.32 1.669-.315.605-.925.94-.605.336-1.323.336-1.152 0-1.865-.739-.708-.739-.708-2.129zm.956 0q0 1.055.46 1.582.46.522 1.157.522.693 0 1.153-.528.46-.527.46-1.607 0-1.018-.466-1.54-.46-.527-1.147-.527-.697 0-1.157.522-.46.522-.46 1.576zM93.58 33.56l.915.119q-.15.946-.77 1.483-.615.532-1.514.532-1.127 0-1.814-.733-.682-.74-.682-2.114 0-.889.294-1.555.295-.667.894-.998.605-.336 1.313-.336.894 0 1.462.455.569.45.729 1.282l-.905.14q-.129-.554-.46-.833-.325-.279-.79-.279-.703 0-1.142.507-.44.5-.44 1.591 0 1.106.424 1.607.424.502 1.106.502.548 0 .915-.336t.465-1.034zM97.321 34.738l.135.822q-.393.083-.703.083-.507 0-.786-.16t-.392-.42q-.114-.263-.114-1.1v-3.157h-.682v-.724h.682v-1.359l.925-.558v1.917h.935v.724h-.935v3.209q0 .398.047.511.051.114.16.181.113.068.32.068.155 0 .408-.037zM97.885 32.826q0-1.524.847-2.258.708-.61 1.726-.61 1.132 0 1.85.744.718.74.718 2.047 0 1.06-.32 1.669-.315.605-.925.94-.605.336-1.323.336-1.152 0-1.865-.739-.708-.739-.708-2.129zm.956 0q0 1.055.46 1.582.46.522 1.157.522.693 0 1.152-.528.46-.527.46-1.607 0-1.018-.465-1.54-.46-.527-1.147-.527-.698 0-1.157.522-.46.522-.46 1.576zM104.106 35.57v-5.488h.838v.832q.32-.584.589-.77.274-.186.6-.186.47 0 .955.3l-.32.863q-.341-.202-.682-.202-.305 0-.548.187-.243.18-.346.506-.155.496-.155 1.085v2.873zM107.28 33.297v-.936h2.857v.936zM113.196 34.738l.135.822q-.393.083-.703.083-.507 0-.786-.16t-.392-.42q-.114-.263-.114-1.1v-3.157h-.682v-.724h.682v-1.359l.925-.558v1.917h.935v.724h-.935v3.209q0 .398.046.511.052.114.16.181.114.068.321.068.155 0 .408-.037zM117.687 34.893q-.517.44-.997.62-.476.181-1.024.181-.904 0-1.39-.439-.485-.444-.485-1.132 0-.403.18-.733.186-.336.481-.538.3-.201.672-.305.274-.072.827-.14 1.126-.134 1.658-.32.005-.19.005-.243 0-.568-.263-.8-.357-.316-1.06-.316-.656 0-.971.233-.31.227-.46.811l-.91-.124q.125-.584.409-.94.284-.362.822-.553.537-.197 1.245-.197.703 0 1.142.166.44.165.646.418.207.248.29.63.046.238.046.859v1.24q0 1.297.057 1.643.062.341.237.656h-.971q-.145-.289-.186-.677zm-.078-2.077q-.506.207-1.519.351-.573.083-.811.186-.238.104-.367.305-.13.197-.13.44 0 .372.28.62.284.248.827.248.537 0 .956-.233.418-.238.615-.646.15-.315.15-.93zM120.85 35.57h-.863v-7.575h.93v2.702q.589-.739 1.504-.739.506 0 .956.207.454.202.744.574.294.367.46.888.165.522.165 1.117 0 1.41-.698 2.18-.697.77-1.674.77-.972 0-1.524-.81zm-.01-2.785q0 .987.268 1.426.44.719 1.188.719.61 0 1.055-.528.444-.532.444-1.58 0-1.076-.429-1.587-.424-.512-1.028-.512-.61 0-1.054.532-.445.527-.445 1.53zM125.506 33.932l.92-.144q.077.552.428.847.357.295.993.295.64 0 .95-.259.31-.263.31-.615 0-.315-.273-.496-.192-.124-.951-.315-1.023-.258-1.421-.444-.393-.192-.6-.522-.201-.336-.201-.74 0-.366.165-.676.17-.316.46-.522.217-.16.589-.269.377-.114.806-.114.646 0 1.132.186.49.186.723.507.233.315.32.847l-.909.124q-.062-.423-.362-.661-.294-.238-.837-.238-.64 0-.914.212t-.274.496q0 .18.113.326.114.15.357.248.14.051.822.237.987.264 1.374.434.393.166.615.486.222.32.222.796 0 .465-.273.879-.27.408-.78.635-.512.222-1.158.222-1.07 0-1.633-.444-.558-.444-.713-1.318z" style="font-style:normal;font-variant:normal;font-weight:400;font-stretch:normal;font-family:Arial;-inkscape-font-specification:Arial;stroke-width:.264583" transform="translate(-31.356 -22.474)"/>
  </g>
</svg>
